<?xml version="1.0" ?><svg viewBox="0 0 32 32" xmlns="http://www.w3.org/2000/svg"><title/><g data-name="Layer 2" id="Layer_2"><path d="M25.91,31H6.09A3.1,3.1,0,0,1,3,27.91V4.09A3.1,3.1,0,0,1,6.09,1H25.91A3.1,3.1,0,0,1,29,4.09V27.91A3.1,3.1,0,0,1,25.91,31ZM6.09,3A1.1,1.1,0,0,0,5,4.09V27.91A1.1,1.1,0,0,0,6.09,29H25.91A1.1,1.1,0,0,0,27,27.91V4.09A1.1,1.1,0,0,0,25.91,3Z"/><path d="M24,31H8V1H24ZM10,29H22V3H10Z"/><rect height="2" width="5.09" x="3.91" y="10"/><rect height="2" width="5.09" x="3.69" y="20"/><rect height="2" width="4.79" x="23" y="10"/><rect height="2" width="4.79" x="23.21" y="20"/><rect height="2" width="14" x="9" y="15"/></g></svg>